<svg width="15" height="15" viewBox="0 0 15 15" fill="none" xmlns="http://www.w3.org/2000/svg">
<path d="M4.1826 3.34442C4.11313 3.22322 4.01857 3.11826 3.90525 3.03657C3.79192 2.95487 3.66246 2.89833 3.52552 2.87072C3.38858 2.84311 3.24732 2.84507 3.11119 2.87647C2.97507 2.90787 2.84722 2.96799 2.73622 3.0528C2.62521 3.1376 2.53359 3.24515 2.46751 3.36823C2.40143 3.49131 2.3624 3.62708 2.35304 3.76647C2.34367 3.90585 2.36419 4.04562 2.41322 4.17644C2.46225 4.30725 2.53866 4.42608 2.63733 4.52497L5.84094 8.71942L6.5876 9.66025L4.39594 6.79053C4.32647 6.66934 4.23192 6.5644 4.11862 6.48271C4.00531 6.40102 3.87587 6.34447 3.73895 6.31685C3.60202 6.28923 3.46078 6.29117 3.32467 6.32255C3.18856 6.35393 3.06072 6.41401 2.94971 6.49879C2.83869 6.58356 2.74707 6.69107 2.68096 6.81412C2.61486 6.93717 2.57579 7.07292 2.56639 7.21228C2.55699 7.35165 2.57746 7.49141 2.62643 7.62223C2.67541 7.75304 2.75176 7.87188 2.85038 7.9708L5.04233 10.8405L6.78399 13.0347C8.30288 14.7772 10.8159 14.6819 12.5582 13.1639C13.5593 12.2838 14.2032 11.0672 14.3679 9.74441C14.4751 8.56858 14.592 5.49414 14.592 5.49414C14.5415 4.77164 13.7212 4.23747 13.6157 4.6108L12.2562 7.32108L11.3212 6.14803L7.58094 1.36803C7.51153 1.24673 7.417 1.14166 7.30368 1.05987C7.19037 0.978077 7.06088 0.921443 6.9239 0.893762C6.78692 0.866081 6.6456 0.867992 6.50942 0.899368C6.37323 0.930743 6.24533 0.990859 6.13426 1.07569C6.0232 1.16052 5.93155 1.2681 5.86545 1.39123C5.79935 1.51436 5.76032 1.65019 5.75098 1.78963C5.74164 1.92907 5.76221 2.0689 5.81131 2.19974C5.86041 2.33058 5.9369 2.44943 6.03566 2.5483L7.21594 4.09358L9.0001 6.44914L5.2726 1.53803C5.20326 1.41663 5.10877 1.31146 4.99546 1.22957C4.88215 1.14767 4.75264 1.09095 4.61562 1.0632C4.47859 1.03545 4.33722 1.03731 4.20098 1.06866C4.06473 1.10001 3.93676 1.16012 3.82565 1.24497C3.71453 1.32982 3.62284 1.43744 3.55672 1.56062C3.4906 1.6838 3.45157 1.81969 3.44226 1.95919C3.43295 2.09869 3.45357 2.23856 3.50273 2.36943C3.5519 2.50031 3.62847 2.61916 3.72733 2.71803L7.8026 7.99997" stroke="black" stroke-width="0.444444" stroke-linecap="round" stroke-linejoin="round"/>
<path d="M2.24254 9.90884C2.24254 10.6216 2.72781 11.1986 3.32726 11.1986M0.961426 9.78801C0.961426 11.3425 2.01976 12.6002 3.32726 12.6002M11.5728 3.8994C11.5728 3.18634 11.0875 2.60967 10.4878 2.60967M12.8536 4.02023C12.8536 2.46579 11.7953 1.20801 10.4878 1.20801" stroke="black" stroke-width="0.444444" stroke-miterlimit="10" stroke-linecap="round" stroke-linejoin="round"/>
</svg>
